<mxfile host="app.diagrams.net" agent="Mozilla/5.0 (Windows NT 10.0; Win64; x64) AppleWebKit/537.36 (KHTML, like Gecko) Chrome/131.0.0.0 Safari/537.36" version="26.0.8">
  <diagram name="Page-1" id="2YBvvXClWsGukQMizWep">
    <mxGraphModel dx="1185" dy="2265" grid="1" gridSize="10" guides="1" tooltips="1" connect="1" arrows="1" fold="1" page="1" pageScale="1" pageWidth="850" pageHeight="1100" math="0" shadow="0">
      <root>
        <mxCell id="0" />
        <mxCell id="1" parent="0" />
        <mxCell id="wQjOEM4G0_OOwjybZKkP-19" value="" style="rounded=0;whiteSpace=wrap;html=1;" vertex="1" parent="1">
          <mxGeometry x="1250" y="-20" width="1260" height="940" as="geometry" />
        </mxCell>
        <mxCell id="tYpc_6L7HMuKdfje9hwW-4" value=":main" style="shape=umlLifeline;perimeter=lifelinePerimeter;whiteSpace=wrap;html=1;container=1;dropTarget=0;collapsible=0;recursiveResize=0;outlineConnect=0;portConstraint=eastwest;newEdgeStyle={&quot;curved&quot;:0,&quot;rounded&quot;:0};" parent="1" vertex="1">
          <mxGeometry x="1320" y="40" width="100" height="810" as="geometry" />
        </mxCell>
        <mxCell id="tYpc_6L7HMuKdfje9hwW-9" value="" style="html=1;points=[[0,0,0,0,5],[0,1,0,0,-5],[1,0,0,0,5],[1,1,0,0,-5]];perimeter=orthogonalPerimeter;outlineConnect=0;targetShapes=umlLifeline;portConstraint=eastwest;newEdgeStyle={&quot;curved&quot;:0,&quot;rounded&quot;:0};" parent="tYpc_6L7HMuKdfje9hwW-4" vertex="1">
          <mxGeometry x="45" y="50" width="10" height="750" as="geometry" />
        </mxCell>
        <mxCell id="tYpc_6L7HMuKdfje9hwW-26" value="app:App" style="shape=umlLifeline;perimeter=lifelinePerimeter;whiteSpace=wrap;html=1;container=1;dropTarget=0;collapsible=0;recursiveResize=0;outlineConnect=0;portConstraint=eastwest;newEdgeStyle={&quot;curved&quot;:0,&quot;rounded&quot;:0};" parent="1" vertex="1">
          <mxGeometry x="1460" y="40" width="100" height="800" as="geometry" />
        </mxCell>
        <mxCell id="jrmJvbhl7SaxDvP2GgRS-2" value="" style="html=1;points=[[0,0,0,0,5],[0,1,0,0,-5],[1,0,0,0,5],[1,1,0,0,-5]];perimeter=orthogonalPerimeter;outlineConnect=0;targetShapes=umlLifeline;portConstraint=eastwest;newEdgeStyle={&quot;curved&quot;:0,&quot;rounded&quot;:0};" parent="tYpc_6L7HMuKdfje9hwW-26" vertex="1">
          <mxGeometry x="45" y="80" width="10" height="690" as="geometry" />
        </mxCell>
        <mxCell id="tYpc_6L7HMuKdfje9hwW-33" value=":StudentListView" style="shape=umlLifeline;perimeter=lifelinePerimeter;whiteSpace=wrap;html=1;container=1;dropTarget=0;collapsible=0;recursiveResize=0;outlineConnect=0;portConstraint=eastwest;newEdgeStyle={&quot;curved&quot;:0,&quot;rounded&quot;:0};" parent="1" vertex="1">
          <mxGeometry x="1600" y="40" width="100" height="790" as="geometry" />
        </mxCell>
        <mxCell id="y5cZsldr1Wav-6Gumasc-5" value="" style="html=1;points=[[0,0,0,0,5],[0,1,0,0,-5],[1,0,0,0,5],[1,1,0,0,-5]];perimeter=orthogonalPerimeter;outlineConnect=0;targetShapes=umlLifeline;portConstraint=eastwest;newEdgeStyle={&quot;curved&quot;:0,&quot;rounded&quot;:0};" parent="tYpc_6L7HMuKdfje9hwW-33" vertex="1">
          <mxGeometry x="45" y="90" width="10" height="650" as="geometry" />
        </mxCell>
        <mxCell id="y5cZsldr1Wav-6Gumasc-8" value="create_filter_frame" style="html=1;align=left;spacingLeft=2;endArrow=open;rounded=0;edgeStyle=orthogonalEdgeStyle;curved=0;rounded=0;endFill=0;" parent="tYpc_6L7HMuKdfje9hwW-33" target="y5cZsldr1Wav-6Gumasc-5" edge="1">
          <mxGeometry x="-0.0948" relative="1" as="geometry">
            <mxPoint x="55" y="286" as="sourcePoint" />
            <Array as="points">
              <mxPoint x="100" y="286" />
              <mxPoint x="100" y="310" />
            </Array>
            <mxPoint as="offset" />
            <mxPoint x="55" y="330" as="targetPoint" />
          </mxGeometry>
        </mxCell>
        <mxCell id="y5cZsldr1Wav-6Gumasc-9" value="create_table_frame" style="html=1;align=left;spacingLeft=2;endArrow=open;rounded=0;edgeStyle=orthogonalEdgeStyle;curved=0;rounded=0;endFill=0;" parent="tYpc_6L7HMuKdfje9hwW-33" source="y5cZsldr1Wav-6Gumasc-5" target="y5cZsldr1Wav-6Gumasc-5" edge="1">
          <mxGeometry x="0.0118" relative="1" as="geometry">
            <mxPoint x="56" y="240" as="sourcePoint" />
            <Array as="points">
              <mxPoint x="100" y="240" />
              <mxPoint x="100" y="270" />
            </Array>
            <mxPoint as="offset" />
            <mxPoint x="55" y="275" as="targetPoint" />
          </mxGeometry>
        </mxCell>
        <mxCell id="fOJPUixp3m-F2VEpdKLu-5" value="update_page_label" style="html=1;align=left;spacingLeft=2;endArrow=open;rounded=0;edgeStyle=orthogonalEdgeStyle;curved=0;rounded=0;endFill=0;" parent="tYpc_6L7HMuKdfje9hwW-33" source="y5cZsldr1Wav-6Gumasc-5" target="y5cZsldr1Wav-6Gumasc-5" edge="1">
          <mxGeometry x="-0.0877" relative="1" as="geometry">
            <mxPoint x="200" y="650" as="sourcePoint" />
            <Array as="points">
              <mxPoint x="70" y="650" />
              <mxPoint x="70" y="674" />
            </Array>
            <mxPoint as="offset" />
            <mxPoint x="200" y="674" as="targetPoint" />
          </mxGeometry>
        </mxCell>
        <mxCell id="jrmJvbhl7SaxDvP2GgRS-4" value="new()" style="html=1;verticalAlign=bottom;endArrow=open;curved=0;rounded=0;endFill=0;" parent="1" target="y5cZsldr1Wav-6Gumasc-5" edge="1">
          <mxGeometry relative="1" as="geometry">
            <mxPoint x="1515" y="130" as="sourcePoint" />
            <mxPoint x="1640" y="130" as="targetPoint" />
          </mxGeometry>
        </mxCell>
        <mxCell id="jrmJvbhl7SaxDvP2GgRS-44" value=":StudentListController" style="shape=umlLifeline;perimeter=lifelinePerimeter;whiteSpace=wrap;html=1;container=1;dropTarget=0;collapsible=0;recursiveResize=0;outlineConnect=0;portConstraint=eastwest;newEdgeStyle={&quot;curved&quot;:0,&quot;rounded&quot;:0};" parent="1" vertex="1">
          <mxGeometry x="1731" y="40" width="120" height="800" as="geometry" />
        </mxCell>
        <mxCell id="jrmJvbhl7SaxDvP2GgRS-45" value="" style="html=1;points=[[0,0,0,0,5],[0,1,0,0,-5],[1,0,0,0,5],[1,1,0,0,-5]];perimeter=orthogonalPerimeter;outlineConnect=0;targetShapes=umlLifeline;portConstraint=eastwest;newEdgeStyle={&quot;curved&quot;:0,&quot;rounded&quot;:0};" parent="jrmJvbhl7SaxDvP2GgRS-44" vertex="1">
          <mxGeometry x="55" y="100" width="10" height="150" as="geometry" />
        </mxCell>
        <mxCell id="y5cZsldr1Wav-6Gumasc-10" value="" style="html=1;points=[[0,0,0,0,5],[0,1,0,0,-5],[1,0,0,0,5],[1,1,0,0,-5]];perimeter=orthogonalPerimeter;outlineConnect=0;targetShapes=umlLifeline;portConstraint=eastwest;newEdgeStyle={&quot;curved&quot;:0,&quot;rounded&quot;:0};" parent="jrmJvbhl7SaxDvP2GgRS-44" vertex="1">
          <mxGeometry x="55" y="370" width="10" height="380" as="geometry" />
        </mxCell>
        <mxCell id="jrmJvbhl7SaxDvP2GgRS-46" value=":DatatListStudentShort" style="shape=umlLifeline;perimeter=lifelinePerimeter;whiteSpace=wrap;html=1;container=1;dropTarget=0;collapsible=0;recursiveResize=0;outlineConnect=0;portConstraint=eastwest;newEdgeStyle={&quot;curved&quot;:0,&quot;rounded&quot;:0};" parent="1" vertex="1">
          <mxGeometry x="1880" y="40" width="130" height="800" as="geometry" />
        </mxCell>
        <mxCell id="jrmJvbhl7SaxDvP2GgRS-47" value="" style="html=1;points=[[0,0,0,0,5],[0,1,0,0,-5],[1,0,0,0,5],[1,1,0,0,-5]];perimeter=orthogonalPerimeter;outlineConnect=0;targetShapes=umlLifeline;portConstraint=eastwest;newEdgeStyle={&quot;curved&quot;:0,&quot;rounded&quot;:0};" parent="jrmJvbhl7SaxDvP2GgRS-46" vertex="1">
          <mxGeometry x="55" y="140" width="10" height="120" as="geometry" />
        </mxCell>
        <mxCell id="y5cZsldr1Wav-6Gumasc-13" value="" style="html=1;points=[[0,0,0,0,5],[0,1,0,0,-5],[1,0,0,0,5],[1,1,0,0,-5]];perimeter=orthogonalPerimeter;outlineConnect=0;targetShapes=umlLifeline;portConstraint=eastwest;newEdgeStyle={&quot;curved&quot;:0,&quot;rounded&quot;:0};" parent="jrmJvbhl7SaxDvP2GgRS-46" vertex="1">
          <mxGeometry x="60" y="470" width="10" height="260" as="geometry" />
        </mxCell>
        <mxCell id="jrmJvbhl7SaxDvP2GgRS-48" value="get_k_n_list" style="html=1;verticalAlign=bottom;endArrow=open;curved=0;rounded=0;endFill=0;" parent="1" source="y5cZsldr1Wav-6Gumasc-10" edge="1">
          <mxGeometry relative="1" as="geometry">
            <mxPoint x="1800" y="470" as="sourcePoint" />
            <mxPoint x="2070" y="470" as="targetPoint" />
          </mxGeometry>
        </mxCell>
        <mxCell id="jrmJvbhl7SaxDvP2GgRS-54" value="refresh_data()" style="html=1;verticalAlign=bottom;endArrow=open;curved=0;rounded=0;endFill=0;exitX=1.023;exitY=0.381;exitDx=0;exitDy=0;exitPerimeter=0;" parent="1" target="y5cZsldr1Wav-6Gumasc-10" edge="1">
          <mxGeometry relative="1" as="geometry">
            <mxPoint x="1660" y="449.99999999999994" as="sourcePoint" />
            <mxPoint x="1780" y="450" as="targetPoint" />
          </mxGeometry>
        </mxCell>
        <mxCell id="iY1IAR5MiszLwtOh5i_x-1" value="new()" style="html=1;verticalAlign=bottom;endArrow=open;curved=0;rounded=0;endFill=0;exitX=1.093;exitY=0.74;exitDx=0;exitDy=0;exitPerimeter=0;" parent="1" edge="1">
          <mxGeometry relative="1" as="geometry">
            <mxPoint x="1375.9299999999998" y="119.99999999999977" as="sourcePoint" />
            <mxPoint x="1505" y="119.99999999999977" as="targetPoint" />
          </mxGeometry>
        </mxCell>
        <mxCell id="iY1IAR5MiszLwtOh5i_x-2" value="new()" style="html=1;verticalAlign=bottom;endArrow=open;curved=0;rounded=0;endFill=0;entryX=-0.068;entryY=0.03;entryDx=0;entryDy=0;entryPerimeter=0;" parent="1" source="y5cZsldr1Wav-6Gumasc-5" edge="1">
          <mxGeometry relative="1" as="geometry">
            <mxPoint x="1660" y="140" as="sourcePoint" />
            <mxPoint x="1786" y="139.99999999999994" as="targetPoint" />
          </mxGeometry>
        </mxCell>
        <mxCell id="iY1IAR5MiszLwtOh5i_x-3" value="return" style="html=1;verticalAlign=bottom;endArrow=open;dashed=1;endSize=8;curved=0;rounded=0;exitX=-0.115;exitY=0.087;exitDx=0;exitDy=0;exitPerimeter=0;" parent="1" target="y5cZsldr1Wav-6Gumasc-5" edge="1">
          <mxGeometry relative="1" as="geometry">
            <mxPoint x="1656.08" y="270.32" as="targetPoint" />
            <mxPoint x="1784.8500000000001" y="269.99999999999994" as="sourcePoint" />
            <Array as="points" />
          </mxGeometry>
        </mxCell>
        <mxCell id="iY1IAR5MiszLwtOh5i_x-4" value=":StudentsList" style="shape=umlLifeline;perimeter=lifelinePerimeter;whiteSpace=wrap;html=1;container=1;dropTarget=0;collapsible=0;recursiveResize=0;outlineConnect=0;portConstraint=eastwest;newEdgeStyle={&quot;curved&quot;:0,&quot;rounded&quot;:0};" parent="1" vertex="1">
          <mxGeometry x="2025" y="40" width="100" height="800" as="geometry" />
        </mxCell>
        <mxCell id="iY1IAR5MiszLwtOh5i_x-5" value="" style="html=1;points=[[0,0,0,0,5],[0,1,0,0,-5],[1,0,0,0,5],[1,1,0,0,-5]];perimeter=orthogonalPerimeter;outlineConnect=0;targetShapes=umlLifeline;portConstraint=eastwest;newEdgeStyle={&quot;curved&quot;:0,&quot;rounded&quot;:0};" parent="iY1IAR5MiszLwtOh5i_x-4" vertex="1">
          <mxGeometry x="45" y="340" width="10" height="160" as="geometry" />
        </mxCell>
        <mxCell id="y5cZsldr1Wav-6Gumasc-12" value="" style="html=1;points=[[0,0,0,0,5],[0,1,0,0,-5],[1,0,0,0,5],[1,1,0,0,-5]];perimeter=orthogonalPerimeter;outlineConnect=0;targetShapes=umlLifeline;portConstraint=eastwest;newEdgeStyle={&quot;curved&quot;:0,&quot;rounded&quot;:0};" parent="iY1IAR5MiszLwtOh5i_x-4" vertex="1">
          <mxGeometry x="45" y="100" width="10" height="40" as="geometry" />
        </mxCell>
        <mxCell id="iY1IAR5MiszLwtOh5i_x-6" value="new()" style="html=1;verticalAlign=bottom;endArrow=open;curved=0;rounded=0;endFill=0;entryX=0.016;entryY=0.293;entryDx=0;entryDy=0;entryPerimeter=0;" parent="1" source="jrmJvbhl7SaxDvP2GgRS-45" target="y5cZsldr1Wav-6Gumasc-12" edge="1">
          <mxGeometry x="-0.3141" relative="1" as="geometry">
            <mxPoint x="1800" y="150" as="sourcePoint" />
            <mxPoint x="1930" y="140" as="targetPoint" />
            <mxPoint as="offset" />
          </mxGeometry>
        </mxCell>
        <mxCell id="iY1IAR5MiszLwtOh5i_x-7" value="return" style="html=1;verticalAlign=bottom;endArrow=open;dashed=1;endSize=8;curved=0;rounded=0;exitX=-0.24;exitY=0.709;exitDx=0;exitDy=0;exitPerimeter=0;" parent="1" edge="1">
          <mxGeometry x="0.314" relative="1" as="geometry">
            <mxPoint x="1796.0000000000002" y="170" as="targetPoint" />
            <mxPoint x="2067.6000000000004" y="170" as="sourcePoint" />
            <Array as="points" />
            <mxPoint as="offset" />
          </mxGeometry>
        </mxCell>
        <mxCell id="iY1IAR5MiszLwtOh5i_x-8" value="new()" style="html=1;verticalAlign=bottom;endArrow=open;curved=0;rounded=0;endFill=0;entryX=0.025;entryY=0.03;entryDx=0;entryDy=0;entryPerimeter=0;" parent="1" edge="1">
          <mxGeometry relative="1" as="geometry">
            <mxPoint x="1796" y="200.00000000000003" as="sourcePoint" />
            <mxPoint x="1935.25" y="200.00000000000003" as="targetPoint" />
          </mxGeometry>
        </mxCell>
        <mxCell id="iY1IAR5MiszLwtOh5i_x-9" value="return" style="html=1;verticalAlign=bottom;endArrow=open;dashed=1;endSize=8;curved=0;rounded=0;exitX=-0.011;exitY=0.094;exitDx=0;exitDy=0;exitPerimeter=0;" parent="1" edge="1">
          <mxGeometry relative="1" as="geometry">
            <mxPoint x="1796" y="260" as="targetPoint" />
            <mxPoint x="1934.89" y="260" as="sourcePoint" />
            <Array as="points" />
          </mxGeometry>
        </mxCell>
        <mxCell id="iY1IAR5MiszLwtOh5i_x-11" value="return" style="html=1;verticalAlign=bottom;endArrow=open;dashed=1;endSize=8;curved=0;rounded=0;" parent="1" target="y5cZsldr1Wav-6Gumasc-10" edge="1">
          <mxGeometry x="0.314" relative="1" as="geometry">
            <mxPoint x="1800" y="440" as="targetPoint" />
            <mxPoint x="2070" y="439.99999999999994" as="sourcePoint" />
            <Array as="points" />
            <mxPoint as="offset" />
          </mxGeometry>
        </mxCell>
        <mxCell id="iY1IAR5MiszLwtOh5i_x-12" value="get_students_count" style="html=1;verticalAlign=bottom;endArrow=open;curved=0;rounded=0;endFill=0;" parent="1" edge="1">
          <mxGeometry relative="1" as="geometry">
            <mxPoint x="1796" y="420" as="sourcePoint" />
            <mxPoint x="2070" y="420" as="targetPoint" />
          </mxGeometry>
        </mxCell>
        <mxCell id="iY1IAR5MiszLwtOh5i_x-13" value="return" style="html=1;verticalAlign=bottom;endArrow=open;dashed=1;endSize=8;curved=0;rounded=0;" parent="1" target="y5cZsldr1Wav-6Gumasc-10" edge="1">
          <mxGeometry x="0.314" relative="1" as="geometry">
            <mxPoint x="1797.67" y="489.9999999999999" as="targetPoint" />
            <mxPoint x="2070" y="489.9999999999999" as="sourcePoint" />
            <Array as="points" />
            <mxPoint as="offset" />
          </mxGeometry>
        </mxCell>
        <mxCell id="iY1IAR5MiszLwtOh5i_x-15" value="set_table_params" style="html=1;verticalAlign=bottom;endArrow=open;curved=0;rounded=0;endFill=0;" parent="1" source="y5cZsldr1Wav-6Gumasc-13" target="y5cZsldr1Wav-6Gumasc-5" edge="1">
          <mxGeometry x="0.3885" y="1" relative="1" as="geometry">
            <mxPoint x="1919.4500000000003" y="900" as="sourcePoint" />
            <mxPoint x="1660" y="530" as="targetPoint" />
            <mxPoint as="offset" />
            <Array as="points">
              <mxPoint x="1830" y="530" />
            </Array>
          </mxGeometry>
        </mxCell>
        <mxCell id="iY1IAR5MiszLwtOh5i_x-16" value="set_table_data" style="html=1;verticalAlign=bottom;endArrow=open;curved=0;rounded=0;endFill=0;" parent="1" source="y5cZsldr1Wav-6Gumasc-13" target="y5cZsldr1Wav-6Gumasc-5" edge="1">
          <mxGeometry x="0.3885" y="1" relative="1" as="geometry">
            <mxPoint x="1920" y="915.48" as="sourcePoint" />
            <mxPoint x="1660" y="580" as="targetPoint" />
            <mxPoint as="offset" />
            <Array as="points">
              <mxPoint x="1820" y="580" />
            </Array>
          </mxGeometry>
        </mxCell>
        <mxCell id="y5cZsldr1Wav-6Gumasc-3" value="add_observer" style="html=1;verticalAlign=bottom;endArrow=open;curved=0;rounded=0;endFill=0;entryX=-0.188;entryY=0.143;entryDx=0;entryDy=0;entryPerimeter=0;" parent="1" source="jrmJvbhl7SaxDvP2GgRS-45" edge="1">
          <mxGeometry relative="1" as="geometry">
            <mxPoint x="1800" y="240.24" as="sourcePoint" />
            <mxPoint x="1933.12" y="240" as="targetPoint" />
          </mxGeometry>
        </mxCell>
        <mxCell id="y5cZsldr1Wav-6Gumasc-4" value="return" style="html=1;verticalAlign=bottom;endArrow=open;dashed=1;endSize=8;curved=0;rounded=0;exitX=-0.164;exitY=0.236;exitDx=0;exitDy=0;exitPerimeter=0;" parent="1" edge="1">
          <mxGeometry x="0.314" relative="1" as="geometry">
            <mxPoint x="1796" y="219.99999999999994" as="targetPoint" />
            <mxPoint x="1933.36" y="219.99999999999994" as="sourcePoint" />
            <Array as="points" />
            <mxPoint as="offset" />
          </mxGeometry>
        </mxCell>
        <mxCell id="y5cZsldr1Wav-6Gumasc-14" value="notify" style="html=1;verticalAlign=bottom;endArrow=open;curved=0;rounded=0;endFill=0;" parent="1" target="y5cZsldr1Wav-6Gumasc-13" edge="1">
          <mxGeometry relative="1" as="geometry">
            <mxPoint x="1796.0000000000002" y="509.99999999999994" as="sourcePoint" />
            <mxPoint x="1938.52" y="509.99999999999994" as="targetPoint" />
          </mxGeometry>
        </mxCell>
        <mxCell id="y5cZsldr1Wav-6Gumasc-23" value="return" style="html=1;verticalAlign=bottom;endArrow=open;dashed=1;endSize=8;curved=0;rounded=0;" parent="1" source="y5cZsldr1Wav-6Gumasc-5" target="y5cZsldr1Wav-6Gumasc-13" edge="1">
          <mxGeometry x="0.314" relative="1" as="geometry">
            <mxPoint x="1938.2399999999998" y="550" as="targetPoint" />
            <mxPoint x="1660" y="550" as="sourcePoint" />
            <Array as="points">
              <mxPoint x="1823.74" y="550" />
            </Array>
            <mxPoint as="offset" />
          </mxGeometry>
        </mxCell>
        <mxCell id="y5cZsldr1Wav-6Gumasc-26" value="return" style="html=1;verticalAlign=bottom;endArrow=open;dashed=1;endSize=8;curved=0;rounded=0;" parent="1" source="y5cZsldr1Wav-6Gumasc-5" target="y5cZsldr1Wav-6Gumasc-13" edge="1">
          <mxGeometry x="0.314" relative="1" as="geometry">
            <mxPoint x="1926" y="730" as="targetPoint" />
            <mxPoint x="1665" y="720" as="sourcePoint" />
            <Array as="points">
              <mxPoint x="1750" y="640" />
            </Array>
            <mxPoint as="offset" />
          </mxGeometry>
        </mxCell>
        <mxCell id="y5cZsldr1Wav-6Gumasc-27" value="return" style="html=1;verticalAlign=bottom;endArrow=open;dashed=1;endSize=8;curved=0;rounded=0;" parent="1" source="y5cZsldr1Wav-6Gumasc-13" edge="1">
          <mxGeometry x="0.314" relative="1" as="geometry">
            <mxPoint x="1796" y="670" as="targetPoint" />
            <mxPoint x="1933.5500000000002" y="670" as="sourcePoint" />
            <Array as="points" />
            <mxPoint as="offset" />
          </mxGeometry>
        </mxCell>
        <mxCell id="y5cZsldr1Wav-6Gumasc-28" value="return" style="html=1;verticalAlign=bottom;endArrow=open;dashed=1;endSize=8;curved=0;rounded=0;exitX=-0.145;exitY=0.686;exitDx=0;exitDy=0;exitPerimeter=0;" parent="1" edge="1">
          <mxGeometry x="0.314" relative="1" as="geometry">
            <mxPoint x="1655" y="740" as="targetPoint" />
            <mxPoint x="1788" y="740" as="sourcePoint" />
            <Array as="points" />
            <mxPoint as="offset" />
          </mxGeometry>
        </mxCell>
        <mxCell id="y5cZsldr1Wav-6Gumasc-74" value="return" style="html=1;verticalAlign=bottom;endArrow=open;dashed=1;endSize=8;curved=0;rounded=0;" parent="1" source="y5cZsldr1Wav-6Gumasc-5" edge="1">
          <mxGeometry x="0.0665" relative="1" as="geometry">
            <mxPoint x="1515" y="780" as="targetPoint" />
            <mxPoint x="1640" y="780" as="sourcePoint" />
            <Array as="points">
              <mxPoint x="1590" y="780" />
            </Array>
            <mxPoint as="offset" />
          </mxGeometry>
        </mxCell>
        <mxCell id="y5cZsldr1Wav-6Gumasc-75" value="return" style="html=1;verticalAlign=bottom;endArrow=open;dashed=1;endSize=8;curved=0;rounded=0;" parent="1" source="jrmJvbhl7SaxDvP2GgRS-2" target="tYpc_6L7HMuKdfje9hwW-9" edge="1">
          <mxGeometry x="0.0665" relative="1" as="geometry">
            <mxPoint x="1380" y="1390" as="targetPoint" />
            <mxPoint x="1488" y="1390" as="sourcePoint" />
            <Array as="points">
              <mxPoint x="1460" y="810" />
            </Array>
            <mxPoint as="offset" />
          </mxGeometry>
        </mxCell>
        <mxCell id="fOJPUixp3m-F2VEpdKLu-1" value="create_buttons_frame" style="html=1;align=left;spacingLeft=2;endArrow=open;rounded=0;edgeStyle=orthogonalEdgeStyle;curved=0;rounded=0;endFill=0;" parent="1" edge="1">
          <mxGeometry x="-0.0877" relative="1" as="geometry">
            <mxPoint x="1655" y="360" as="sourcePoint" />
            <Array as="points">
              <mxPoint x="1700" y="360" />
              <mxPoint x="1700" y="384" />
            </Array>
            <mxPoint as="offset" />
            <mxPoint x="1655" y="384" as="targetPoint" />
          </mxGeometry>
        </mxCell>
        <mxCell id="fOJPUixp3m-F2VEpdKLu-3" value="update_buttons_states" style="html=1;align=left;spacingLeft=2;endArrow=open;rounded=0;edgeStyle=orthogonalEdgeStyle;curved=0;rounded=0;endFill=0;" parent="1" edge="1">
          <mxGeometry x="-0.0877" relative="1" as="geometry">
            <mxPoint x="1655" y="400" as="sourcePoint" />
            <Array as="points">
              <mxPoint x="1700" y="400" />
              <mxPoint x="1700" y="424" />
            </Array>
            <mxPoint as="offset" />
            <mxPoint x="1655" y="424" as="targetPoint" />
          </mxGeometry>
        </mxCell>
        <mxCell id="fOJPUixp3m-F2VEpdKLu-4" value="set_column_widths" style="html=1;align=left;spacingLeft=2;endArrow=open;rounded=0;edgeStyle=orthogonalEdgeStyle;curved=0;rounded=0;endFill=0;" parent="1" edge="1">
          <mxGeometry x="-0.0877" relative="1" as="geometry">
            <mxPoint x="1655" y="600" as="sourcePoint" />
            <Array as="points">
              <mxPoint x="1700" y="600" />
              <mxPoint x="1700" y="624" />
            </Array>
            <mxPoint as="offset" />
            <mxPoint x="1655" y="624" as="targetPoint" />
          </mxGeometry>
        </mxCell>
        <mxCell id="wQjOEM4G0_OOwjybZKkP-1" value=":StorageDBAdapter" style="shape=umlLifeline;perimeter=lifelinePerimeter;whiteSpace=wrap;html=1;container=1;dropTarget=0;collapsible=0;recursiveResize=0;outlineConnect=0;portConstraint=eastwest;newEdgeStyle={&quot;curved&quot;:0,&quot;rounded&quot;:0};" vertex="1" parent="1">
          <mxGeometry x="2140" y="40" width="110" height="800" as="geometry" />
        </mxCell>
        <mxCell id="wQjOEM4G0_OOwjybZKkP-2" value="" style="html=1;points=[[0,0,0,0,5],[0,1,0,0,-5],[1,0,0,0,5],[1,1,0,0,-5]];perimeter=orthogonalPerimeter;outlineConnect=0;targetShapes=umlLifeline;portConstraint=eastwest;newEdgeStyle={&quot;curved&quot;:0,&quot;rounded&quot;:0};" vertex="1" parent="wQjOEM4G0_OOwjybZKkP-1">
          <mxGeometry x="50" y="340" width="10" height="160" as="geometry" />
        </mxCell>
        <mxCell id="wQjOEM4G0_OOwjybZKkP-3" value="" style="html=1;points=[[0,0,0,0,5],[0,1,0,0,-5],[1,0,0,0,5],[1,1,0,0,-5]];perimeter=orthogonalPerimeter;outlineConnect=0;targetShapes=umlLifeline;portConstraint=eastwest;newEdgeStyle={&quot;curved&quot;:0,&quot;rounded&quot;:0};" vertex="1" parent="wQjOEM4G0_OOwjybZKkP-1">
          <mxGeometry x="50" y="100" width="10" height="40" as="geometry" />
        </mxCell>
        <mxCell id="wQjOEM4G0_OOwjybZKkP-4" value=":StudentsListDB" style="shape=umlLifeline;perimeter=lifelinePerimeter;whiteSpace=wrap;html=1;container=1;dropTarget=0;collapsible=0;recursiveResize=0;outlineConnect=0;portConstraint=eastwest;newEdgeStyle={&quot;curved&quot;:0,&quot;rounded&quot;:0};" vertex="1" parent="1">
          <mxGeometry x="2310" y="40" width="100" height="800" as="geometry" />
        </mxCell>
        <mxCell id="wQjOEM4G0_OOwjybZKkP-5" value="" style="html=1;points=[[0,0,0,0,5],[0,1,0,0,-5],[1,0,0,0,5],[1,1,0,0,-5]];perimeter=orthogonalPerimeter;outlineConnect=0;targetShapes=umlLifeline;portConstraint=eastwest;newEdgeStyle={&quot;curved&quot;:0,&quot;rounded&quot;:0};" vertex="1" parent="wQjOEM4G0_OOwjybZKkP-4">
          <mxGeometry x="45" y="340" width="10" height="160" as="geometry" />
        </mxCell>
        <mxCell id="wQjOEM4G0_OOwjybZKkP-6" value="" style="html=1;points=[[0,0,0,0,5],[0,1,0,0,-5],[1,0,0,0,5],[1,1,0,0,-5]];perimeter=orthogonalPerimeter;outlineConnect=0;targetShapes=umlLifeline;portConstraint=eastwest;newEdgeStyle={&quot;curved&quot;:0,&quot;rounded&quot;:0};" vertex="1" parent="wQjOEM4G0_OOwjybZKkP-4">
          <mxGeometry x="45" y="100" width="10" height="40" as="geometry" />
        </mxCell>
        <mxCell id="wQjOEM4G0_OOwjybZKkP-7" value="new()" style="html=1;verticalAlign=bottom;endArrow=open;curved=0;rounded=0;endFill=0;" edge="1" parent="1">
          <mxGeometry x="-0.3141" relative="1" as="geometry">
            <mxPoint x="2080" y="150" as="sourcePoint" />
            <mxPoint x="2190" y="150" as="targetPoint" />
            <mxPoint as="offset" />
          </mxGeometry>
        </mxCell>
        <mxCell id="wQjOEM4G0_OOwjybZKkP-8" value="new()" style="html=1;verticalAlign=bottom;endArrow=open;curved=0;rounded=0;endFill=0;" edge="1" parent="1" target="wQjOEM4G0_OOwjybZKkP-6">
          <mxGeometry x="-0.3141" relative="1" as="geometry">
            <mxPoint x="2200" y="150" as="sourcePoint" />
            <mxPoint x="2315" y="150" as="targetPoint" />
            <mxPoint as="offset" />
          </mxGeometry>
        </mxCell>
        <mxCell id="wQjOEM4G0_OOwjybZKkP-9" value="return" style="html=1;verticalAlign=bottom;endArrow=open;dashed=1;endSize=8;curved=0;rounded=0;" edge="1" parent="1" source="wQjOEM4G0_OOwjybZKkP-6">
          <mxGeometry x="0.314" relative="1" as="geometry">
            <mxPoint x="2200" y="170" as="targetPoint" />
            <mxPoint x="2315" y="170" as="sourcePoint" />
            <Array as="points" />
            <mxPoint as="offset" />
          </mxGeometry>
        </mxCell>
        <mxCell id="wQjOEM4G0_OOwjybZKkP-10" value="return" style="html=1;verticalAlign=bottom;endArrow=open;dashed=1;endSize=8;curved=0;rounded=0;" edge="1" parent="1">
          <mxGeometry x="0.314" relative="1" as="geometry">
            <mxPoint x="2080" y="170" as="targetPoint" />
            <mxPoint x="2190" y="170" as="sourcePoint" />
            <Array as="points" />
            <mxPoint as="offset" />
          </mxGeometry>
        </mxCell>
        <mxCell id="wQjOEM4G0_OOwjybZKkP-11" value="get_students_count" style="html=1;verticalAlign=bottom;endArrow=open;curved=0;rounded=0;endFill=0;" edge="1" parent="1">
          <mxGeometry relative="1" as="geometry">
            <mxPoint x="2080" y="420.0000000000001" as="sourcePoint" />
            <mxPoint x="2190" y="420" as="targetPoint" />
          </mxGeometry>
        </mxCell>
        <mxCell id="wQjOEM4G0_OOwjybZKkP-12" value="count_student_in_db" style="html=1;verticalAlign=bottom;endArrow=open;curved=0;rounded=0;endFill=0;" edge="1" parent="1" target="wQjOEM4G0_OOwjybZKkP-5">
          <mxGeometry relative="1" as="geometry">
            <mxPoint x="2200" y="420" as="sourcePoint" />
            <mxPoint x="2300" y="420" as="targetPoint" />
          </mxGeometry>
        </mxCell>
        <mxCell id="wQjOEM4G0_OOwjybZKkP-13" value="return" style="html=1;verticalAlign=bottom;endArrow=open;dashed=1;endSize=8;curved=0;rounded=0;" edge="1" parent="1">
          <mxGeometry x="0.314" relative="1" as="geometry">
            <mxPoint x="2200" y="439.9999999999999" as="targetPoint" />
            <mxPoint x="2355" y="439.9999999999999" as="sourcePoint" />
            <Array as="points" />
            <mxPoint as="offset" />
          </mxGeometry>
        </mxCell>
        <mxCell id="wQjOEM4G0_OOwjybZKkP-14" value="return" style="html=1;verticalAlign=bottom;endArrow=open;dashed=1;endSize=8;curved=0;rounded=0;" edge="1" parent="1">
          <mxGeometry x="0.314" relative="1" as="geometry">
            <mxPoint x="2080" y="439.9999999999999" as="targetPoint" />
            <mxPoint x="2190" y="439.9999999999999" as="sourcePoint" />
            <Array as="points" />
            <mxPoint as="offset" />
          </mxGeometry>
        </mxCell>
        <mxCell id="wQjOEM4G0_OOwjybZKkP-15" value="get_k_n_list" style="html=1;verticalAlign=bottom;endArrow=open;curved=0;rounded=0;endFill=0;" edge="1" parent="1">
          <mxGeometry relative="1" as="geometry">
            <mxPoint x="2080" y="469.9999999999999" as="sourcePoint" />
            <mxPoint x="2190" y="469.9999999999999" as="targetPoint" />
          </mxGeometry>
        </mxCell>
        <mxCell id="wQjOEM4G0_OOwjybZKkP-16" value="get_k_n_list_in_db" style="html=1;verticalAlign=bottom;endArrow=open;curved=0;rounded=0;endFill=0;" edge="1" parent="1">
          <mxGeometry relative="1" as="geometry">
            <mxPoint x="2200" y="469.9999999999999" as="sourcePoint" />
            <mxPoint x="2355" y="469.9999999999999" as="targetPoint" />
          </mxGeometry>
        </mxCell>
        <mxCell id="wQjOEM4G0_OOwjybZKkP-17" value="return" style="html=1;verticalAlign=bottom;endArrow=open;dashed=1;endSize=8;curved=0;rounded=0;" edge="1" parent="1" target="wQjOEM4G0_OOwjybZKkP-2">
          <mxGeometry x="0.314" relative="1" as="geometry">
            <mxPoint x="2194.810344827586" y="489.9999999999999" as="targetPoint" />
            <mxPoint x="2355" y="489.9999999999999" as="sourcePoint" />
            <Array as="points" />
            <mxPoint as="offset" />
          </mxGeometry>
        </mxCell>
        <mxCell id="wQjOEM4G0_OOwjybZKkP-18" value="return" style="html=1;verticalAlign=bottom;endArrow=open;dashed=1;endSize=8;curved=0;rounded=0;" edge="1" parent="1">
          <mxGeometry x="0.314" relative="1" as="geometry">
            <mxPoint x="2080" y="489.9999999999999" as="targetPoint" />
            <mxPoint x="2190" y="489.9999999999999" as="sourcePoint" />
            <Array as="points" />
            <mxPoint as="offset" />
          </mxGeometry>
        </mxCell>
      </root>
    </mxGraphModel>
  </diagram>
</mxfile>
